HIERARCHY
ROOT joint_Root
{
	OFFSET 0.0 0.0 0.0
	CHANNELS 6 Xposition Yposition Zposition Zrotation Xrotation Yrotation 
	JOINT Hips
	{
		OFFSET -17.1583 93.1646 452.98
		CHANNELS 6 Xposition Yposition Zposition Zrotation Xrotation Yrotation 
		JOINT Spine
		{
			OFFSET 15.7357 0.0 0.0
			CHANNELS 6 Xposition Yposition Zposition Zrotation Xrotation Yrotation 
			JOINT Chest
			{
				OFFSET 8.98455 -0.406207 0.0
				CHANNELS 6 Xposition Yposition Zposition Zrotation Xrotation Yrotation 
				JOINT Neck
				{
					OFFSET 16.3773 0.0 0.0
					CHANNELS 6 Xposition Yposition Zposition Zrotation Xrotation Yrotation 
					JOINT Head
					{
						OFFSET 6.45672 0.0 0.0
						CHANNELS 6 Xposition Yposition Zposition Zrotation Xrotation Yrotation 
						End Site
						{
							OFFSET 0.0 0.0 0.0
						}
					}
				}
				JOINT Shoulder_L
				{
					OFFSET 12.9942 -0.242716 4.98039
					CHANNELS 6 Xposition Yposition Zposition Zrotation Xrotation Yrotation 
					JOINT UpperArm_L
					{
						OFFSET 5.34809 0.0 0.0
						CHANNELS 6 Xposition Yposition Zposition Zrotation Xrotation Yrotation 
						JOINT LowerArm_L
						{
							OFFSET 24.3286 1.87007e-05 0.0
							CHANNELS 6 Xposition Yposition Zposition Zrotation Xrotation Yrotation 
							JOINT Hand_L
							{
								OFFSET 22.2916 0.0 0.0
								CHANNELS 6 Xposition Yposition Zposition Zrotation Xrotation Yrotation 
								End Site
								{
									OFFSET 0.0 0.0 0.0
								}
							}
						}
					}
				}
				JOINT Shoulder_R
				{
					OFFSET 12.9945 -0.242716 -4.98039
					CHANNELS 6 Xposition Yposition Zposition Zrotation Xrotation Yrotation 
					JOINT UpperArm_R
					{
						OFFSET -5.34813 0.0 0.0
						CHANNELS 6 Xposition Yposition Zposition Zrotation Xrotation Yrotation 
						JOINT LowerArm_R
						{
							OFFSET -24.3289 0.000322201 0.0
							CHANNELS 6 Xposition Yposition Zposition Zrotation Xrotation Yrotation 
							JOINT Hand_R
							{
								OFFSET -22.2915 -0.000108084 0.0
								CHANNELS 6 Xposition Yposition Zposition Zrotation Xrotation Yrotation 
								End Site
								{
									OFFSET 0.0 0.0 0.0
								}
							}
						}
					}
				}
			}
		}
		JOINT UpperLeg_L
		{
			OFFSET -2.19248 -6.46944 0.0
			CHANNELS 6 Xposition Yposition Zposition Zrotation Xrotation Yrotation 
			JOINT LowerLeg_L
			{
				OFFSET 39.0811 0.0 -1.23785e-05
				CHANNELS 6 Xposition Yposition Zposition Zrotation Xrotation Yrotation 
				JOINT Foot_L
				{
					OFFSET 40.9854 0.0 -1.26872e-05
					CHANNELS 6 Xposition Yposition Zposition Zrotation Xrotation Yrotation 
					JOINT Toes_L
					{
						OFFSET 11.7543 0.0 0.0
						CHANNELS 6 Xposition Yposition Zposition Zrotation Xrotation Yrotation 
						End Site
						{
							OFFSET 0.0 0.0 0.0
						}
					}
				}
			}
		}
		JOINT UpperLeg_R
		{
			OFFSET -2.19251 6.46944 0.0
			CHANNELS 6 Xposition Yposition Zposition Zrotation Xrotation Yrotation 
			JOINT LowerLeg_R
			{
				OFFSET -39.0811 -0.00228153 -0.0401928
				CHANNELS 6 Xposition Yposition Zposition Zrotation Xrotation Yrotation 
				JOINT Foot_R
				{
					OFFSET -40.9854 0.0 0.0
					CHANNELS 6 Xposition Yposition Zposition Zrotation Xrotation Yrotation 
					JOINT Toes_R
					{
						OFFSET -11.7543 0.0 0.0
						CHANNELS 6 Xposition Yposition Zposition Zrotation Xrotation Yrotation 
						End Site
						{
							OFFSET 0.0 0.0 0.0
						}
					}
				}
			}
		}
	}
}
MOTION
Frames:	9
Frame Time:	0.0333333
0.000000 0.000000 0.000000 0.000000 0.000000 -0.000000 -3.639910 92.997900 1.602790 84.656500 -4.795430 1.034500 15.735700 0.000005 -0.000001 93.693000 87.735400 -101.162000 8.984550 -0.406207 -0.000000 -3.137260 1.000170 -14.914400 16.377300 -0.000001 -0.000001 -3.361010 1.930970 -10.378600 6.456720 -0.000001 -0.000000 -1.845590 4.051220 -14.207800 12.994200 -0.242716 4.980390 -92.655800 8.801280 -73.134700 5.348090 -0.000007 -0.000001 -55.111800 -3.121510 2.942180 24.328600 0.000019 0.000005 10.429100 23.792600 -24.524300 22.291600 -0.000001 0.000005 4.308820 4.890080 9.575220 12.994500 -0.242716 -4.980390 93.688500 -6.914740 -61.832400 -5.348130 -0.000001 -0.000004 -28.670300 -57.479200 -62.017500 -24.328900 0.000322 -0.000009 -0.001042 -8.744690 -0.000052 -22.291500 -0.000108 -0.000004 53.617300 5.522140 -7.453970 -2.192480 -6.469440 -0.000000 -167.681000 -6.562210 2.399850 39.081100 -0.000007 -0.000012 0.000480 -0.001881 14.325600 40.985400 -0.000006 -0.000013 -3.724850 9.821950 -69.862600 11.754300 -0.000000 0.000003 -0.000774 0.179769 -9.284700 -2.192510 6.469440 -0.000001 -178.993000 9.451140 -176.396000 -39.081100 -0.002282 -0.040193 -0.012081 0.099999 8.767270 -40.985400 0.000008 0.000006 -8.116340 14.627300 -63.721700 -11.754300 -0.000006 -0.000006 -0.008494 0.259688 -6.025890
0.000000 0.000000 0.000000 0.000000 0.000000 -0.000000 -3.665140 92.989200 1.601880 84.653500 -4.797180 1.093310 15.735700 0.000005 -0.000001 93.328600 87.720000 -100.758000 8.984550 -0.406207 -0.000000 -3.107600 0.967500 -14.834700 16.377300 -0.000001 -0.000001 -3.297390 1.888980 -10.285400 6.456720 -0.000001 -0.000000 -1.863380 4.055850 -14.217200 12.994200 -0.242716 4.980390 -92.654000 8.789080 -73.124000 5.348090 -0.000007 -0.000001 -55.362600 -2.954720 3.069300 24.328600 0.000019 0.000005 10.482100 23.740400 -24.681600 22.291600 -0.000001 0.000005 4.066750 4.895410 9.469330 12.994500 -0.242716 -4.980390 93.709400 -6.951020 -61.821600 -5.348130 -0.000001 -0.000004 -28.614900 -57.344400 -61.909800 -24.328900 0.000322 -0.000009 -0.001042 -8.791960 -0.000052 -22.291500 -0.000108 -0.000004 53.649700 5.518230 -7.286570 -2.192480 -6.469440 -0.000000 -167.650000 -6.544200 2.437190 39.081100 -0.000007 -0.000012 0.000224 -0.000877 14.369900 40.985400 -0.000006 -0.000013 -3.730600 9.864530 -69.848200 11.754300 -0.000000 0.000003 -0.000713 0.178873 -9.321120 -2.192510 6.469440 -0.000001 -178.967000 9.393420 -176.410000 -39.081100 -0.002282 -0.040193 -0.012365 0.100047 8.921880 -40.985400 0.000008 0.000006 -8.023320 14.570200 -63.835600 -11.754300 -0.000006 -0.000006 -0.008596 0.260501 -5.992670
0.000000 0.000000 0.000000 0.000000 0.000000 -0.000000 -3.691870 92.990600 1.576120 84.625300 -4.780010 1.068300 15.735700 0.000005 -0.000001 93.029400 87.739700 -100.419000 8.984550 -0.406207 -0.000000 -3.148220 0.940526 -14.755700 16.377300 -0.000001 -0.000001 -3.221160 1.830400 -10.259400 6.456720 -0.000001 -0.000000 -1.856240 3.974270 -14.102900 12.994200 -0.242716 4.980390 -92.643600 8.737500 -73.093700 5.348090 -0.000007 -0.000001 -55.631100 -2.803370 3.121510 24.328600 0.000019 0.000005 10.469700 23.645900 -24.737000 22.291600 -0.000001 0.000005 3.949930 4.898080 9.416220 12.994500 -0.242716 -4.980390 93.725100 -6.968180 -61.779100 -5.348130 -0.000001 -0.000004 -28.942700 -57.303900 -62.128900 -24.328900 0.000322 -0.000009 -0.001044 -8.778920 -0.000052 -22.291500 -0.000108 -0.000004 53.596300 5.520090 -7.365540 -2.192480 -6.469440 -0.000000 -167.602000 -6.562630 2.375430 39.081100 -0.000007 -0.000012 0.000138 -0.000541 14.407900 40.985400 -0.000006 -0.000013 -3.752970 9.873940 -69.868500 11.754300 -0.000000 0.000003 -0.000794 0.180059 -9.272950 -2.192510 6.469440 -0.000001 -178.897000 9.272960 -176.448000 -39.081100 -0.002282 -0.040193 -0.012227 0.099259 8.913800 -40.985400 0.000008 0.000006 -8.012900 14.437300 -63.850000 -11.754300 -0.000006 -0.000006 -0.008567 0.260263 -6.002380
0.000000 0.000000 0.000000 0.000000 0.000000 -0.000000 -3.710040 92.987400 1.550340 84.655800 -4.791210 1.064310 15.735700 0.000005 -0.000001 92.588800 87.755000 -99.961200 8.984550 -0.406207 -0.000000 -3.179650 0.904875 -14.723000 16.377300 -0.000001 -0.000001 -3.169300 1.744980 -10.105900 6.456720 -0.000001 -0.000000 -1.845920 3.988960 -14.145000 12.994200 -0.242716 4.980390 -92.622000 8.660300 -73.083900 5.348090 -0.000007 -0.000001 -55.874100 -2.637250 3.146690 24.328600 0.000019 0.000005 10.508900 23.657600 -24.810200 22.291600 -0.000001 0.000005 3.830950 4.899210 9.393560 12.994500 -0.242716 -4.980390 93.748400 -7.005610 -61.757300 -5.348130 -0.000001 -0.000004 -29.133300 -57.204400 -62.324400 -24.328900 0.000322 -0.000009 -0.001036 -8.960780 -0.000053 -22.291500 -0.000108 -0.000004 53.440100 5.521110 -7.410050 -2.192480 -6.469440 -0.000000 -167.613000 -6.596020 2.353390 39.081100 -0.000007 -0.000012 -0.000042 0.000160 14.413300 40.985400 -0.000006 -0.000013 -3.764460 9.913620 -69.854600 11.754300 -0.000000 0.000003 -0.000794 0.180061 -9.272860 -2.192510 6.469440 -0.000001 -178.890000 9.269690 -176.564000 -39.081100 -0.002282 -0.040193 -0.012268 0.097398 9.104550 -40.985400 0.000008 0.000006 -7.836360 14.427300 -64.003400 -11.754300 -0.000006 -0.000006 -0.008561 0.260222 -6.004050
0.000000 0.000000 0.000000 0.000000 0.000000 -0.000000 -3.738500 92.981800 1.532820 84.648100 -4.786710 1.134160 15.735700 0.000005 -0.000001 92.252400 87.724600 -99.587800 8.984550 -0.406207 -0.000000 -3.120470 0.873630 -14.649800 16.377300 -0.000001 -0.000001 -3.110140 1.700750 -10.182500 6.456720 -0.000001 -0.000000 -1.882590 3.881160 -14.054000 12.994200 -0.242716 4.980390 -92.606300 8.620190 -73.106600 5.348090 -0.000007 -0.000001 -56.059600 -2.542130 3.064430 24.328600 0.000019 0.000005 10.560700 23.760000 -24.831200 22.291600 -0.000001 0.000005 3.848470 4.896100 9.455540 12.994500 -0.242716 -4.980390 93.780000 -7.035560 -61.657300 -5.348130 -0.000001 -0.000004 -29.650500 -57.227200 -62.871200 -24.328900 0.000322 -0.000009 -0.001042 -8.982170 -0.000053 -22.291500 -0.000108 -0.000004 53.270100 5.517550 -7.258180 -2.192480 -6.469440 -0.000000 -167.564000 -6.623060 2.368400 39.081100 -0.000007 -0.000012 -0.000820 0.003172 14.477600 40.985400 -0.000006 -0.000013 -3.777380 9.977690 -69.834900 11.754300 -0.000000 0.000003 -0.000668 0.178195 -9.348660 -2.192510 6.469440 -0.000001 -178.863000 9.210130 -176.566000 -39.081100 -0.002282 -0.040193 -0.012467 0.097311 9.226300 -40.985400 0.000008 0.000006 -7.805170 14.391500 -64.049500 -11.754300 -0.000006 -0.000006 -0.008498 0.259716 -6.024750
0.000000 0.000000 0.000000 0.000000 0.000000 -0.000000 -3.762110 92.991700 1.486110 84.663200 -4.778250 1.176660 15.735700 0.000005 -0.000001 91.510300 87.704800 -98.821300 8.984550 -0.406207 -0.000000 -3.083490 0.811138 -14.602700 16.377300 -0.000001 -0.000001 -2.996960 1.636080 -10.191500 6.456720 -0.000001 -0.000000 -1.969020 3.860400 -14.022900 12.994200 -0.242716 4.980390 -92.579900 8.541000 -73.122600 5.348090 -0.000007 -0.000001 -56.239800 -2.529100 2.973100 24.328600 0.000019 0.000005 10.588400 23.778700 -24.873400 22.291600 -0.000001 0.000005 3.956240 4.894830 9.480940 12.994500 -0.242716 -4.980390 93.790000 -7.050750 -61.645100 -5.348130 -0.000001 -0.000004 -29.970500 -57.232100 -63.249600 -24.328900 0.000322 -0.000009 -0.001043 -9.010170 -0.000053 -22.291500 -0.000108 -0.000004 53.115300 5.516460 -7.212190 -2.192480 -6.469440 -0.000000 -167.569000 -6.538180 2.448520 39.081100 -0.000007 -0.000012 0.000480 -0.001876 14.366800 40.985400 -0.000006 -0.000013 -3.816340 9.913700 -69.813400 11.754300 -0.000000 0.000003 -0.000725 0.179051 -9.313910 -2.192510 6.469440 -0.000001 -178.855000 9.116550 -176.527000 -39.081100 -0.002282 -0.040193 -0.012391 0.097325 9.181490 -40.985400 0.000008 0.000006 -7.771180 14.305100 -64.064200 -11.754300 -0.000006 -0.000006 -0.008491 0.259658 -6.027110
0.000000 0.000000 0.000000 0.000000 0.000000 -0.000000 -3.801410 92.978000 1.458290 84.627200 -4.813200 1.234050 15.735700 0.000005 -0.000001 91.166100 87.673000 -98.435800 8.984550 -0.406207 -0.000000 -3.022090 0.777097 -14.521200 16.377300 -0.000001 -0.000001 -2.882660 1.597660 -10.245200 6.456720 -0.000001 -0.000000 -2.000790 3.793730 -13.973400 12.994200 -0.242716 4.980390 -92.562400 8.482590 -73.123200 5.348090 -0.000007 -0.000001 -56.354400 -2.568010 2.800230 24.328600 0.000019 0.000005 10.616800 23.838000 -24.882100 22.291600 -0.000001 0.000005 4.053220 4.893670 9.503800 12.994500 -0.242716 -4.980390 93.805400 -7.073940 -61.625800 -5.348130 -0.000001 -0.000004 -30.017000 -57.144100 -63.342900 -24.328900 0.000322 -0.000009 -0.001040 -9.028830 -0.000053 -22.291500 -0.000108 -0.000004 53.172600 5.518230 -7.286900 -2.192480 -6.469440 -0.000000 -167.491000 -6.596000 2.391270 39.081100 -0.000007 -0.000012 0.000174 -0.000670 14.557500 40.985400 -0.000006 -0.000013 -3.828640 9.953720 -69.831500 11.754300 -0.000000 0.000003 -0.000852 0.180903 -9.238630 -2.192510 6.469440 -0.000001 -178.775000 9.064860 -176.614000 -39.081100 -0.002282 -0.040193 -0.012695 0.096448 9.439040 -40.985400 0.000008 0.000006 -7.620080 14.266400 -64.225000 -11.754300 -0.000006 -0.000006 -0.008673 0.261109 -5.967820
0.000000 0.000000 0.000000 0.000000 0.000000 -0.000000 -3.825890 92.981600 1.413310 84.646400 -4.835740 1.269960 15.735700 0.000005 -0.000001 90.903800 87.653100 -98.149600 8.984550 -0.406207 -0.000000 -2.984050 0.751797 -14.474100 16.377300 -0.000001 -0.000001 -2.715900 1.544330 -10.173800 6.456720 -0.000001 -0.000000 -2.038010 3.793510 -14.053700 12.994200 -0.242716 4.980390 -92.552900 8.457320 -73.135100 5.348090 -0.000007 -0.000001 -56.389700 -2.493900 2.703180 24.328600 0.000019 0.000005 10.653800 23.745200 -25.040600 22.291600 -0.000001 0.000005 4.217120 4.892060 9.535840 12.994500 -0.242716 -4.980390 93.815400 -7.081250 -61.587300 -5.348130 -0.000001 -0.000004 -29.991400 -57.021400 -63.424700 -24.328900 0.000322 -0.000009 -0.001043 -8.876430 -0.000053 -22.291500 -0.000108 -0.000004 52.999900 5.519270 -7.332160 -2.192480 -6.469440 -0.000000 -167.492000 -6.582130 2.434100 39.081100 -0.000007 -0.000012 0.000403 -0.001560 14.511300 40.985400 -0.000006 -0.000013 -3.857610 9.927400 -69.811600 11.754300 -0.000000 0.000003 -0.000784 0.179912 -9.278890 -2.192510 6.469440 -0.000001 -178.774000 9.145250 -176.648000 -39.081100 -0.002282 -0.040193 -0.012651 0.095356 9.519560 -40.985400 0.000008 0.000006 -7.521520 14.316300 -64.249400 -11.754300 -0.000006 -0.000006 -0.008444 0.259289 -6.042180
0.000000 0.000000 0.000000 0.000000 0.000000 -0.000000 -3.855650 92.974700 1.381810 84.619700 -4.913220 1.312290 15.735700 0.000005 -0.000001 90.675200 87.620400 -97.875000 8.984550 -0.406207 -0.000000 -2.920920 0.725599 -14.382800 16.377300 -0.000001 -0.000001 -2.598220 1.538200 -10.243800 6.456720 -0.000001 -0.000000 -2.062100 3.788000 -14.000400 12.994200 -0.242716 4.980390 -92.549200 8.439610 -73.125200 5.348090 -0.000007 -0.000001 -56.421200 -2.523200 2.573960 24.328600 0.000019 0.000005 10.723600 23.730100 -25.201100 22.291600 -0.000001 0.000005 4.352450 4.888850 9.599580 12.994500 -0.242716 -4.980390 93.849900 -7.139810 -61.567400 -5.348130 -0.000001 -0.000004 -29.838200 -56.843300 -63.356600 -24.328900 0.000322 -0.000009 -0.001043 -8.858410 -0.000052 -22.291500 -0.000108 -0.000004 52.945600 5.522560 -7.471660 -2.192480 -6.469440 -0.000000 -167.434000 -6.619040 2.436320 39.081100 -0.000007 -0.000012 -0.000470 0.001803 14.595800 40.985400 -0.000006 -0.000013 -3.870920 9.949000 -69.819800 11.754300 -0.000000 0.000003 -0.000849 0.180863 -9.240280 -2.192510 6.469440 -0.000001 -178.718000 9.015210 -176.703000 -39.081100 -0.002282 -0.040193 -0.012730 0.094262 9.674510 -40.985400 0.000008 0.000006 -7.404010 14.280900 -64.373800 -11.754300 -0.000006 -0.000006 -0.008464 0.259444 -6.035840
